<svg version="1.1" xmlns="http://www.w3.org/2000/svg" xmlns:xlink="http://www.w3.org/1999/xlink" width="671.92806" height="186.94363" viewBox="0,0,671.92806,186.94363"><g transform="translate(128.57973,-197.7326)"><g data-paper-data="{&quot;isPaintingLayer&quot;:true}" fill-rule="nonzero" stroke-linecap="butt" stroke-linejoin="miter" stroke-miterlimit="10" stroke-dasharray="" stroke-dashoffset="0" style="mix-blend-mode: normal"><path d="M208.68956,206.43354c0,0 -9.61979,42.89748 -30.43516,55.43686c-20.81537,12.53938 -69.7169,2.62417 -78.69396,-12.27774c-6.56482,-10.89759 12.93207,-11.7656 30.46997,-21.55062c6.44431,-3.59551 9.55042,-8.48105 15.14376,-11.85053c14.37823,-8.66158 61.88075,-16.81382 61.88075,-16.81382z" fill="#b2b2b2" stroke="#000000" stroke-width="2"/><path d="M207.82124,199.647c-1.35661,-0.90441 -2.84048,-0.63031 -4.43694,-0.63031c-1.89877,-0.01394 -3.64437,0.66533 -5.51034,0.8534c-2.8602,0.28827 -5.87268,-0.66931 -8.67376,-1.14081c-5.00272,0.01608 -9.70162,2.14456 -14.67305,2.14456c-1.64688,0 -3.66396,-0.5079 -5.22462,-0.28946c-3.18867,0.4463 -6.19212,1.34332 -9.33583,2.12235c-4.14352,1.65159 -8.44229,1.08815 -12.33144,3.67099c-2.00198,1.00099 -3.70518,2.42731 -5.76297,3.31052c-1.77174,0.76044 -3.67273,4.85972 -5.10132,6.28831c-2.23225,3.25653 -5.27022,3.27634 -8.64111,5.49825c-3.14775,3.17538 -7.00902,3.58312 -9.70038,7.41674c-0.54668,0.28815 -2.80401,0.90805 -3.06505,1.34176c-1.08775,1.80726 4.34548,2.31426 5.14113,2.51262c0,0 0.13233,0.03308 0.24148,0.13381c0.03996,-0.00588 0.06582,-0.00588 0.06582,-0.00588l0.3073,0.01493c1.11406,-0.27824 2.48286,-0.01122 3.51922,-0.41244c2.2985,-0.88984 4.38819,-2.35106 6.68293,-3.27289c1.37888,-0.68944 3.18997,-2.03383 4.63136,-2.451c1.5434,-0.44669 3.36791,0.28517 4.94094,0.12515c1.18198,-0.12024 2.12482,-0.68285 3.24331,-0.93885c3.60962,-3.83366 9.22697,-1.16387 13.43677,-3.57815c1.98128,-1.32167 4.08024,-2.92019 6.38139,-3.60888c2.69222,-0.80573 5.45906,-0.52779 8.03437,-1.81033c1.85074,-1.23917 4.38136,-3.41762 6.63027,-3.63654c2.23686,-0.21775 3.67965,1.60903 6.09031,1.00804c1.52687,-0.25448 3.27824,-0.57976 4.49911,-1.61143c1.60277,-1.3544 3.76696,-3.80984 6.13621,-3.53077c0.67925,0.08001 1.84703,1.19406 2.45026,1.49627c1.58469,1.35222 3.03996,-1.16767 4.27067,-2.10836c1.27854,-0.97725 1.8176,0.71666 2.54329,0.35799c1.28235,-0.6338 0.48433,-2.1629 2.25684,-2.61119c1.03519,0.4852 1.99977,-0.20062 2.32404,-1.36216c0.43043,-1.54185 -0.08311,-3.96752 -1.24197,-5.21072zM120.26304,233.71604c-1.46764,-0.368 -7.79971,-1.04112 -5.71601,-4.05881c0.5041,-0.73005 2.39991,-1.13448 3.22066,-1.51539c2.46237,-3.96994 6.60716,-4.34246 9.72819,-7.4404c3.25243,-2.1886 6.27369,-2.69423 8.35889,-5.93032c1.78735,-1.78735 4.62427,-5.67019 6.90962,-6.57352c1.56388,-0.61815 2.85755,-1.9291 4.36895,-2.6848c3.95436,-2.64766 8.32632,-2.07173 12.5257,-3.75758c5.31452,-1.33904 9.42146,-1.8814 14.86812,-1.8814c4.99565,0 9.71464,-2.15517 14.75553,-2.14115c2.73016,0.45109 5.68649,1.4206 8.4691,1.1449c1.90279,-0.18853 3.69687,-0.84942 5.63252,-0.86089c1.56063,0 2.96853,-0.17876 4.32332,0.42823c0.21587,-0.04169 0.40525,0.10034 0.40525,0.10034c0.14513,0.11255 0.28448,0.23732 0.41766,0.37275l0.27398,0.18265c0,0 0.24328,0.16219 0.23374,0.42455c1.12661,1.57302 1.61731,3.95601 1.11031,5.7078c-0.41016,1.4172 -1.97308,2.8298 -3.39025,2.06641c-0.82715,0.19717 -0.68111,2.1023 -1.74316,2.53167c-1.2801,0.51753 -1.32743,-0.84308 -2.10524,-0.68105c-2.26827,0.47252 -2.71795,4.59 -5.65222,2.35924c-0.45868,-0.22888 -1.62424,-1.31233 -2.12117,-1.36087c-1.96525,-0.19196 -3.95865,2.228 -5.29236,3.32638c-1.3714,1.12942 -3.222,1.53256 -4.92947,1.81714c-2.46453,0.61797 -4.06333,-1.27289 -6.1954,-0.99196c-2.11744,0.27901 -4.46199,2.33423 -6.22688,3.50632c-2.66178,1.33569 -5.47932,1.07007 -8.25135,1.90396c-2.21028,0.6649 -4.23557,2.23176 -6.13986,3.50052c-4.3168,2.47792 -9.67661,-0.02694 -13.47055,3.59816c-1.23795,0.33189 -2.30015,0.93187 -3.61383,1.06115c-1.49716,0.14734 -3.32033,-0.5662 -4.77334,-0.16056c-1.35864,0.37929 -3.19963,1.75021 -4.51149,2.40615c-2.31208,0.92067 -4.41645,2.44633 -6.74564,3.29854c-1.12205,0.41054 -2.44413,0.14952 -3.62363,0.4447l-0.54984,0.01493c0,0 -0.22043,0 -0.36857,-0.14636c-0.10224,0.00833 -0.18127,-0.01142 -0.18127,-0.01142z" fill="#000000" stroke="none" stroke-width="0.5"/><path d="M207.99667,199.7159c1.15886,1.24319 1.67395,3.67418 1.24351,5.21604c-0.32426,1.16154 -1.28866,1.84822 -2.32385,1.36302c-1.7725,0.44829 -0.97404,1.97977 -2.25639,2.61357c-0.72569,0.35867 -1.26491,-1.33616 -2.54345,-0.35891c-1.23071,0.94069 -2.78466,3.47671 -4.36935,2.12449c-0.60324,-0.30221 -1.77055,-1.41358 -2.4498,-1.49359c-2.36925,-0.27907 -4.43475,2.16079 -6.03752,3.51519c-1.22086,1.03168 -3.0718,1.36601 -4.59867,1.62049c-2.41066,0.60099 -3.85298,-1.22154 -6.08984,-1.0038c-2.2489,0.21892 -4.68044,2.39559 -6.53118,3.63476c-2.57531,1.28254 -5.36708,1.04226 -8.0593,1.84799c-2.30114,0.68869 -4.45401,2.28435 -6.43529,3.60603c-4.20981,2.41428 -9.84164,-0.27174 -13.45126,3.56192c-1.11849,0.256 -2.06208,0.81721 -3.24406,0.93745c-1.57304,0.16002 -3.39931,-0.57563 -4.94271,-0.12894c-1.44139,0.41717 -3.16043,1.72251 -4.5393,2.41195c-2.29474,0.92183 -4.47604,2.42315 -6.77454,3.31299c-1.03636,0.40122 -2.40562,0.13312 -3.51969,0.41136l-0.30736,-0.01506c0,0 -0.02587,-0.00002 -0.06583,0.00586c-0.10915,-0.10073 -0.24157,-0.13403 -0.24157,-0.13403c-0.79565,-0.19836 -12.80176,0.00484 -11.71402,-1.80243c0.26104,-0.43371 7.80397,-2.76829 8.35064,-3.05644c2.69136,-3.83362 7.83693,-3.24747 10.98468,-6.42285c3.37089,-2.22191 6.40818,-2.24957 8.64043,-5.5061c1.42859,-1.42859 3.33169,-5.54256 5.10343,-6.303c2.05779,-0.88321 3.76685,-2.32223 5.76883,-3.32322c3.88915,-2.58284 8.22126,-2.04157 12.36478,-3.69316c3.14371,-0.77903 6.1768,-1.67222 9.36547,-2.11852c1.56066,-0.21844 3.5885,0.2962 5.23539,0.2962c4.97143,0 9.68085,-2.11661 14.68356,-2.13268c2.80108,0.4715 5.81698,1.43544 8.67717,1.14717c1.86596,-0.18807 3.61222,-0.86581 5.51099,-0.85187c1.59645,0 3.08116,-0.27191 4.43777,0.6325z" data-paper-data="{&quot;noHover&quot;:false,&quot;origItem&quot;:[&quot;Path&quot;,{&quot;applyMatrix&quot;:true,&quot;segments&quot;:[[[317.82124,199.647],[0,0],[-1.35661,-0.90441]],[[313.3843,199.01669],[1.59645,0],[-1.89877,-0.01394]],[[307.87397,199.87008],[1.86596,-0.18807],[-2.8602,0.28827]],[[299.20021,198.72927],[2.80108,0.4715],[-5.00272,0.01608]],[[284.52716,200.87383],[4.97143,0],[-1.64688,0]],[[279.30254,200.58437],[1.56066,-0.21844],[-3.18867,0.4463]],[[269.96671,202.70672],[3.14371,-0.77903],[-4.14352,1.65159]],[[257.63527,206.37771],[3.88915,-2.58284],[-2.00198,1.00099]],[[251.87229,209.68823],[2.05779,-0.88321],[-1.77174,0.76044]],[[246.77097,215.97654],[1.42859,-1.42859],[-2.23225,3.25653]],[[238.12987,221.47479],[3.37089,-2.22191],[-3.14775,3.17538]],[[228.42949,228.89153],[2.69136,-3.83362],[-0.54668,0.28815]],[[225.36444,230.23328],[0.26104,-0.43371],[-1.08775,1.80726]],[[230.50557,232.7459],[-0.79565,-0.19836],[0,0]],[[230.74705,232.87971],[-0.10915,-0.10073],[0.03996,-0.00588]],[230.81287,232.87383],[[231.12018,232.88876],[0,0],[1.11406,-0.27824]],[[234.6394,232.47632],[-1.03636,0.40122],[2.2985,-0.88984]],[[241.32233,229.20342],[-2.29474,0.92183],[1.37888,-0.68944]],[[245.9537,226.75243],[-1.44139,0.41717],[1.5434,-0.44669]],[[250.89464,226.87758],[-1.57304,0.16002],[1.18198,-0.12024]],[[254.13795,225.93873],[-1.11849,0.256],[3.60962,-3.83366]],[[267.57473,222.36058],[-4.20981,2.41428],[1.98128,-1.32167]],[[273.95612,218.7517],[-2.30114,0.68869],[2.69222,-0.80573]],[[281.99048,216.94137],[-2.57531,1.28254],[1.85074,-1.23917]],[[288.62075,213.30483],[-2.2489,0.21892],[2.23686,-0.21775]],[[294.71106,214.31288],[-2.41066,0.60099],[1.52687,-0.25448]],[[299.21017,212.70144],[-1.22086,1.03168],[1.60277,-1.3544]],[[305.34637,209.17068],[-2.36925,-0.27907],[0.67925,0.08001]],[[307.79664,210.66695],[-0.60324,-0.30221],[1.58469,1.35222]],[[312.06731,208.55859],[-1.23071,0.94069],[1.27854,-0.97725]],[[314.6106,208.91657],[-0.72569,0.35867],[1.28235,-0.6338]],[[316.86743,206.30539],[-1.7725,0.44829],[1.03519,0.4852]],[[319.19147,204.94322],[-0.32426,1.16154],[0.43043,-1.54185]],[[317.9495,199.73251],[1.15886,1.24319],[0,0]]],&quot;closed&quot;:true}]}" fill="#bdad7c" stroke="none" stroke-width="0.5"/><path d="M-127.57973,383.67623v-152.5h669.92806v152.5z" fill="#c2b280" stroke="#000000" stroke-width="2"/></g></g></svg>