<svg version="1.1" xmlns="http://www.w3.org/2000/svg" xmlns:xlink="http://www.w3.org/1999/xlink" width="706.41667" height="483.45418" viewBox="0,0,706.41667,483.45418"><g transform="translate(162.70833,51.46993)"><g data-paper-data="{&quot;isPaintingLayer&quot;:true}" fill="#866f28" fill-rule="nonzero" stroke="#000000" stroke-width="2" stroke-linecap="butt" stroke-linejoin="miter" stroke-miterlimit="10" stroke-dasharray="" stroke-dashoffset="0" style="mix-blend-mode: normal"><path d="M-161.70833,369.06251v-116h221.83333v116z"/><path d="M138.73707,430.7322l-22.59092,-72.5648l182.3668,-56.77457l5.05844,1.45289l-3.44443,6.53141l4.48999,-0.14319c0,0 -5.50553,12.53151 -1.9311,10.62204c1.10932,-0.5926 6.31717,-2.92542 6.31717,-2.92542l-3.37662,10.32862l5.35536,-0.39776c0,0 -10.9688,9.13478 -10.27153,12.37905c0.39359,1.83129 13.50924,-2.72899 13.50924,-2.72899l-9.78363,13.33582l10.28193,0.30543l-6.84669,9.0267l13.23279,14.7782z"/><path d="M-144.875,45.0625v-63h671.5184v63z"/><path d="M339.70834,401.39736v-451.86729h203v451.86729z"/><path d="M-121.53642,300.50617v-315.90104h125.2711v315.90104z"/></g></g></svg>